<svg xmlns="http://www.w3.org/2000/svg" viewBox="0 0 1200 630">
  <defs>
    <radialGradient id="bg1" cx="20%" cy="30%" r="60%"><stop offset="0%" stop-color="#c0ff00" stop-opacity=".15"/><stop offset="100%" stop-color="#000" stop-opacity="0"/></radialGradient>
    <radialGradient id="bg2" cx="85%" cy="80%" r="50%"><stop offset="0%" stop-color="#a855f7" stop-opacity=".25"/><stop offset="100%" stop-color="#000" stop-opacity="0"/></radialGradient>
    <pattern id="grid" width="48" height="48" patternUnits="userSpaceOnUse"><path d="M48 0H0V48" fill="none" stroke="#c0ff00" stroke-width=".5" opacity=".08"/></pattern>
  </defs>
  <rect width="1200" height="630" fill="#000"/>
  <rect width="1200" height="630" fill="url(#grid)"/>
  <rect width="1200" height="630" fill="url(#bg1)"/>
  <rect width="1200" height="630" fill="url(#bg2)"/>

  <g transform="translate(80, 80)">
    <svg width="56" height="56" viewBox="0 0 32 32"><path d="M4 6 L16 2 L28 6 V18 L16 30 L4 18 Z" stroke="#c0ff00" stroke-width="2" fill="none"/><path d="M8 14 L16 6 L24 14 L24 22 L16 26 L8 22 Z" stroke="#a855f7" stroke-width="1.5" fill="#c0ff00" fill-opacity=".15"/><circle cx="16" cy="16" r="2" fill="#c0ff00"/></svg>
    <text x="72" y="38" fill="#fff" font-family="ui-monospace,SFMono-Regular,Menlo,monospace" font-size="20" font-weight="700" letter-spacing="4">SYBILSHIELD</text>
  </g>

  <text x="80" y="280" fill="#fff" font-family="ui-monospace,SFMono-Regular,Menlo,monospace" font-size="78" font-weight="700" letter-spacing="-2">HUNT SYBILS.</text>
  <text x="80" y="370" fill="#c0ff00" font-family="ui-monospace,SFMono-Regular,Menlo,monospace" font-size="78" font-weight="700" letter-spacing="-2">PROTECT REAL USERS.</text>

  <text x="80" y="470" fill="#9aa3b3" font-family="system-ui,sans-serif" font-size="28" font-weight="400">Open-source Sybil detection for token distributions.</text>
  <text x="80" y="510" fill="#9aa3b3" font-family="system-ui,sans-serif" font-size="28" font-weight="400">Six detection methods · evidence reports · public appeal flow.</text>

  <g transform="translate(80, 560)">
    <rect width="180" height="40" fill="#c0ff00"/>
    <text x="90" y="27" fill="#000" font-family="ui-monospace,monospace" font-size="14" font-weight="700" letter-spacing="2" text-anchor="middle">sybilshield.com</text>
  </g>
  <text x="290" y="588" fill="#6b7280" font-family="ui-monospace,monospace" font-size="14" letter-spacing="2">// MIT licensed · public beta</text>
</svg>
